<mxfile host="app.diagrams.net" modified="2023-06-07T07:44:28.339Z" agent="Mozilla/5.0 (Windows NT 10.0; Win64; x64) AppleWebKit/537.36 (KHTML, like Gecko) Chrome/112.0.0.0 YaBrowser/23.5.1.721 Yowser/2.5 Safari/537.36" etag="xEKksvByyavq2JwmKsIW" version="21.3.7" type="github">
  <diagram name="Страница 1" id="KTi3jMZPnXB85JBFxuaD">
    <mxGraphModel dx="906" dy="603" grid="1" gridSize="10" guides="1" tooltips="1" connect="1" arrows="1" fold="1" page="1" pageScale="1" pageWidth="827" pageHeight="1169" math="0" shadow="0">
      <root>
        <mxCell id="0" />
        <mxCell id="1" parent="0" />
        <mxCell id="Lf8_qndTP78GyDS2c2hH-1" value="/task/" style="rounded=1;whiteSpace=wrap;html=1;" vertex="1" parent="1">
          <mxGeometry x="354" y="170" width="120" height="60" as="geometry" />
        </mxCell>
        <mxCell id="Lf8_qndTP78GyDS2c2hH-2" value="/task/{taskid}" style="rounded=1;whiteSpace=wrap;html=1;" vertex="1" parent="1">
          <mxGeometry x="354" y="250" width="120" height="60" as="geometry" />
        </mxCell>
        <mxCell id="Lf8_qndTP78GyDS2c2hH-3" value="/tag/{tagname}" style="rounded=1;whiteSpace=wrap;html=1;" vertex="1" parent="1">
          <mxGeometry x="354" y="330" width="120" height="60" as="geometry" />
        </mxCell>
        <mxCell id="Lf8_qndTP78GyDS2c2hH-4" value="/due/{yy}/{mm}/{dd}" style="rounded=1;whiteSpace=wrap;html=1;" vertex="1" parent="1">
          <mxGeometry x="354" y="410" width="120" height="60" as="geometry" />
        </mxCell>
        <mxCell id="Lf8_qndTP78GyDS2c2hH-5" value="/task/" style="rounded=1;whiteSpace=wrap;html=1;" vertex="1" parent="1">
          <mxGeometry x="354" y="490" width="120" height="60" as="geometry" />
        </mxCell>
        <mxCell id="Lf8_qndTP78GyDS2c2hH-6" value="/task/{taskid}" style="rounded=1;whiteSpace=wrap;html=1;" vertex="1" parent="1">
          <mxGeometry x="354" y="570" width="120" height="60" as="geometry" />
        </mxCell>
        <mxCell id="Lf8_qndTP78GyDS2c2hH-7" value="GET" style="rounded=1;whiteSpace=wrap;html=1;" vertex="1" parent="1">
          <mxGeometry x="520" y="170" width="120" height="60" as="geometry" />
        </mxCell>
        <mxCell id="Lf8_qndTP78GyDS2c2hH-8" value="GET" style="rounded=1;whiteSpace=wrap;html=1;" vertex="1" parent="1">
          <mxGeometry x="520" y="250" width="120" height="60" as="geometry" />
        </mxCell>
        <mxCell id="Lf8_qndTP78GyDS2c2hH-9" value="GET" style="rounded=1;whiteSpace=wrap;html=1;" vertex="1" parent="1">
          <mxGeometry x="520" y="330" width="120" height="60" as="geometry" />
        </mxCell>
        <mxCell id="Lf8_qndTP78GyDS2c2hH-10" value="GET" style="rounded=1;whiteSpace=wrap;html=1;" vertex="1" parent="1">
          <mxGeometry x="520" y="410" width="120" height="60" as="geometry" />
        </mxCell>
        <mxCell id="Lf8_qndTP78GyDS2c2hH-11" value="POST" style="rounded=1;whiteSpace=wrap;html=1;" vertex="1" parent="1">
          <mxGeometry x="520" y="490" width="120" height="60" as="geometry" />
        </mxCell>
        <mxCell id="Lf8_qndTP78GyDS2c2hH-12" value="DELETE" style="rounded=1;whiteSpace=wrap;html=1;" vertex="1" parent="1">
          <mxGeometry x="520" y="570" width="120" height="60" as="geometry" />
        </mxCell>
        <mxCell id="Lf8_qndTP78GyDS2c2hH-14" value="" style="endArrow=classic;html=1;rounded=0;endFill=1;exitX=0;exitY=0.5;exitDx=0;exitDy=0;entryX=1;entryY=0.5;entryDx=0;entryDy=0;" edge="1" parent="1" source="Lf8_qndTP78GyDS2c2hH-9" target="Lf8_qndTP78GyDS2c2hH-3">
          <mxGeometry width="50" height="50" relative="1" as="geometry">
            <mxPoint x="470" y="420" as="sourcePoint" />
            <mxPoint x="490" y="330" as="targetPoint" />
          </mxGeometry>
        </mxCell>
        <mxCell id="Lf8_qndTP78GyDS2c2hH-15" value="" style="endArrow=classic;html=1;rounded=0;endFill=1;exitX=0;exitY=0.5;exitDx=0;exitDy=0;entryX=1;entryY=0.5;entryDx=0;entryDy=0;" edge="1" parent="1" source="Lf8_qndTP78GyDS2c2hH-8" target="Lf8_qndTP78GyDS2c2hH-2">
          <mxGeometry width="50" height="50" relative="1" as="geometry">
            <mxPoint x="530" y="370" as="sourcePoint" />
            <mxPoint x="484" y="370" as="targetPoint" />
          </mxGeometry>
        </mxCell>
        <mxCell id="Lf8_qndTP78GyDS2c2hH-16" value="" style="endArrow=classic;html=1;rounded=0;endFill=1;exitX=0;exitY=0.5;exitDx=0;exitDy=0;entryX=1;entryY=0.5;entryDx=0;entryDy=0;" edge="1" parent="1" source="Lf8_qndTP78GyDS2c2hH-7" target="Lf8_qndTP78GyDS2c2hH-1">
          <mxGeometry width="50" height="50" relative="1" as="geometry">
            <mxPoint x="540" y="380" as="sourcePoint" />
            <mxPoint x="494" y="380" as="targetPoint" />
          </mxGeometry>
        </mxCell>
        <mxCell id="Lf8_qndTP78GyDS2c2hH-17" value="" style="endArrow=classic;html=1;rounded=0;endFill=1;exitX=0;exitY=0.5;exitDx=0;exitDy=0;entryX=1;entryY=0.5;entryDx=0;entryDy=0;" edge="1" parent="1" source="Lf8_qndTP78GyDS2c2hH-10" target="Lf8_qndTP78GyDS2c2hH-4">
          <mxGeometry width="50" height="50" relative="1" as="geometry">
            <mxPoint x="550" y="390" as="sourcePoint" />
            <mxPoint x="504" y="390" as="targetPoint" />
          </mxGeometry>
        </mxCell>
        <mxCell id="Lf8_qndTP78GyDS2c2hH-18" value="" style="endArrow=classic;html=1;rounded=0;endFill=1;exitX=0;exitY=0.5;exitDx=0;exitDy=0;entryX=1;entryY=0.5;entryDx=0;entryDy=0;" edge="1" parent="1" source="Lf8_qndTP78GyDS2c2hH-11" target="Lf8_qndTP78GyDS2c2hH-5">
          <mxGeometry width="50" height="50" relative="1" as="geometry">
            <mxPoint x="560" y="400" as="sourcePoint" />
            <mxPoint x="514" y="400" as="targetPoint" />
          </mxGeometry>
        </mxCell>
        <mxCell id="Lf8_qndTP78GyDS2c2hH-19" value="" style="endArrow=classic;html=1;rounded=0;endFill=1;exitX=0;exitY=0.5;exitDx=0;exitDy=0;entryX=1;entryY=0.5;entryDx=0;entryDy=0;" edge="1" parent="1" source="Lf8_qndTP78GyDS2c2hH-12" target="Lf8_qndTP78GyDS2c2hH-6">
          <mxGeometry width="50" height="50" relative="1" as="geometry">
            <mxPoint x="570" y="410" as="sourcePoint" />
            <mxPoint x="524" y="410" as="targetPoint" />
          </mxGeometry>
        </mxCell>
      </root>
    </mxGraphModel>
  </diagram>
</mxfile>
